<?xml version="1.0" standalone="no"?><!DOCTYPE svg PUBLIC "-//W3C//DTD SVG 1.1//EN" "http://www.w3.org/Graphics/SVG/1.1/DTD/svg11.dtd"><svg t="1687835485175" class="icon" viewBox="0 0 1024 1024" version="1.1" xmlns="http://www.w3.org/2000/svg" p-id="988" xmlns:xlink="http://www.w3.org/1999/xlink" width="200" height="200"><path d="M909.5 242.1H147.6c-13.3 0-24.1-10.9-24.1-24.1v-8.4c0-13.3 10.9-24.1 24.1-24.1h761.9c13.3 0 24.1 10.9 24.1 24.1v8.4c0 13.2-10.8 24.1-24.1 24.1z" fill="#d81e06" p-id="989"></path><path d="M701.8 870H351.9c-71 0-128.8-57.8-128.8-128.8V213.7h51.5v527.5c0 42.6 34.7 77.3 77.3 77.3h349.9c42.6 0 77.3-34.7 77.3-77.3V213.7h51.5v527.5c0 71-57.8 128.8-128.8 128.8zM647.7 186h-51.5c0-28.4-29.9-51.6-66.7-51.6-36.7 0-66.6 23.1-66.6 51.6h-51.5c0-56.9 53-103.1 118.1-103.1S647.7 129.1 647.7 186z" fill="#d81e06" p-id="990"></path><path d="M384.2 708.5h-2.9c-13.4 0-24.3-10.9-24.3-24.3V373.8c0-13.4 10.9-24.3 24.3-24.3h2.9c13.4 0 24.3 10.9 24.3 24.3v310.4c0 13.3-10.9 24.3-24.3 24.3zM531 708.5h-2.9c-13.4 0-24.3-10.9-24.3-24.3V373.8c0-13.4 10.9-24.3 24.3-24.3h2.9c13.4 0 24.3 10.9 24.3 24.3v310.4c0 13.3-10.9 24.3-24.3 24.3zM677.8 708.5h-2.9c-13.4 0-24.3-10.9-24.3-24.3V373.8c0-13.4 10.9-24.3 24.3-24.3h2.9c13.4 0 24.3 10.9 24.3 24.3v310.4c0 13.3-11 24.3-24.3 24.3z" fill="#d81e06" p-id="991"></path></svg>